<?xml version="1.0" standalone="no"?><!DOCTYPE svg PUBLIC "-//W3C//DTD SVG 1.1//EN" "http://www.w3.org/Graphics/SVG/1.1/DTD/svg11.dtd"><svg t="1746619286573" class="icon" viewBox="0 0 1024 1024" version="1.1" xmlns="http://www.w3.org/2000/svg" p-id="6746" width="128" height="128" xmlns:xlink="http://www.w3.org/1999/xlink"><path d="M604.3648 335.36c-13.2096 0-23.9616-10.752-23.9616-23.9616 0-68.4032-55.3984-123.8016-123.8016-123.8016S332.8 242.9952 332.8 311.3984c0 13.2096-10.752 23.9616-23.9616 23.9616S284.672 324.608 284.672 311.3984c0-94.9248 76.9024-171.8272 171.8272-171.8272s171.8272 76.9024 171.8272 171.8272c0 13.2096-10.752 23.9616-23.9616 23.9616z" p-id="6747"></path><path d="M455.9872 315.6992c23.3472 0 43.008 21.8112 43.008 47.616v28.4672c-0.2048 1.024-0.4096 2.1504-0.4096 3.2768v131.584c0 7.4752 6.0416 13.5168 13.5168 13.5168 7.4752 0 13.5168-6.0416 13.5168-13.5168v-93.0816c5.0176-2.6624 10.0352-4.8128 14.4384-4.8128 18.0224 0 33.28 10.752 39.936 28.16v94.4128c0 7.4752 6.0416 13.5168 13.5168 13.5168 7.4752 0 13.5168-6.0416 13.5168-13.5168v-88.576c5.5296-2.3552 11.5712-3.584 17.6128-3.4816 18.0224 0 33.28 10.752 39.936 28.16v89.3952c0 7.4752 6.0416 13.5168 13.5168 13.5168s13.5168-6.0416 13.5168-13.5168v-83.5584c5.0176-2.2528 10.5472-3.3792 16.0768-3.3792h1.536c11.3664-0.1024 22.4256 4.5056 30.208 12.8 7.9872 8.6016 12.288 19.968 12.1856 31.744v116.1216c0 56.832-4.4032 101.1712-25.8048 132.8128-24.2688 35.6352-69.0176 52.224-140.6976 52.224-69.7344 0-100.4544-13.6192-127.3856-35.6352-0.512-0.4096-1.024-0.7168-1.536-1.1264-3.072-1.8432-5.8368-3.9936-8.3968-6.5536L284.4672 630.1696c-21.7088-21.7088-10.5472-52.4288 4.4032-67.2768 7.0656-7.0656 18.6368-11.4688 30.9248-11.776h1.536c12.4928 0 23.552 4.1984 31.232 11.8784l35.5328 35.4304c2.56 2.56 6.0416 3.8912 9.6256 3.9936 1.7408 0 3.4816-0.3072 5.12-1.024 5.0176-2.048 8.2944-7.0656 8.2944-12.4928V363.3152c0-25.3952 20.992-47.616 44.8512-47.616m0.1024-48.0256c-50.3808 0-92.9792 43.8272-92.9792 95.6416v149.0944c-13.1072-6.2464-27.4432-9.5232-41.8816-9.4208h-2.6624c-24.576 0.6144-47.8208 10.0352-63.6928 25.8048-15.4624 15.6672-25.8048 35.6352-29.4912 57.344-4.7104 28.3648 4.608 57.344 24.9856 77.6192l0.1024 0.1024L413.696 826.0608c4.608 4.5056 9.6256 8.6016 15.0528 12.0832 40.5504 32.4608 84.5824 45.1584 156.2624 45.1584 41.984 0 76.288-5.12 104.8576-15.7696 32.3584-11.9808 57.7536-31.3344 75.4688-57.5488 27.648-41.0624 33.8944-92.0576 34.0992-155.8528 0.1024-1.3312 0.2048-2.56 0.2048-3.8912V534.3232c0.2048-23.9616-8.8064-47.104-25.1904-64.6144a88.420352 88.420352 0 0 0-65.2288-27.9552h-1.536c-4.8128 0-9.6256 0.4096-14.4384 1.1264-4.9152-5.8368-10.5472-10.9568-16.7936-15.36-15.1552-10.752-33.28-16.384-51.9168-16.384-5.3248 0-10.6496 0.4096-15.872 1.3312-4.9152-5.8368-10.6496-11.0592-16.896-15.4624-13.2096-9.3184-28.7744-14.9504-45.056-16.0768v-17.7152c0.1024-24.2688-8.9088-47.616-25.088-65.6384-16.4864-18.8416-40.448-29.696-65.536-29.9008z" p-id="6748"></path></svg>